<?xml version="1.0" encoding="UTF-8"?>
<svg width="228px" height="63px" viewBox="0 0 228 63" version="1.1" xmlns="http://www.w3.org/2000/svg" xmlns:xlink="http://www.w3.org/1999/xlink">
    <title>Combined Shape</title>
    <g id="Page-1" stroke="none" stroke-width="1" fill="none" fill-rule="evenodd">
        <g id="Logotip" transform="translate(-92.000000, -266.000000)" fill="#FA4338" fill-rule="nonzero">
            <path d="M250.944178,267.194076 C252.667255,265.919213 254.246743,265.635911 256.257,266.485819 C258.267257,267.335728 259.128796,268.893893 259.128796,271.443619 C259.128796,272.424283 257.752373,275.517145 256.411243,278.688925 L256.411243,278.688925 L256.011375,279.640794 C254.603424,283.019173 253.39625,286.256 254.103153,286.883625 C254.186116,286.965468 255.407516,285.829668 257.144208,284.121695 L257.144208,284.121695 L257.553847,283.717684 C259.087315,282.201223 260.9554,280.310649 262.780586,278.437003 L262.780586,278.437003 L263.277017,277.926722 C266.410749,274.701322 269.314099,271.632488 270.041621,270.735362 C272.626237,267.477379 274.349315,266.769122 277.221111,267.760682 C279.231368,268.610591 280.236496,270.168756 280.380086,272.435179 C280.380086,280.084356 258.698027,294.107848 255.682641,297.082528 C254.246743,298.357391 253.959564,299.915557 254.964692,301.473722 C265.550132,318.099351 267.083628,320.863877 267.428212,322.954007 L267.448079,323.082548 L267.448079,323.082548 L267.457004,323.146391 C267.744184,325.696117 266.739056,327.537585 264.872388,328.529145 C262.862131,329.379054 260.995464,329.095751 259.128796,327.537585 C257.980078,326.404374 255.251872,322.01318 250.656998,314.647305 L250.656998,314.647305 L247.785202,310.11446 C246.492894,308.272991 244.195457,308.697945 243.477508,310.539414 C242.912124,311.893956 242.369455,313.259702 241.846309,314.570475 L241.500401,315.435453 C240.299603,318.429288 239.201225,321.043753 238.164686,322.438134 C236.872378,324.421254 234.574941,324.98786 232.421094,324.279602 C229.118529,323.00474 228.25699,319.888408 230.123657,314.788957 C237.644891,296.35444 240.518467,289.19634 241.819377,285.976311 L241.819377,285.976311 L241.957607,285.634364 C242.485889,284.328415 242.726017,283.746669 242.947949,283.244883 L242.947949,283.244883 L243.00321,283.12073 C243.16879,282.75103 243.33679,282.396108 243.621098,281.784174 C247.067253,273.285088 248.933921,268.752242 250.944178,267.194076 Z M309.850196,269.743802 C314.445069,267.052425 319.039943,269.177196 319.757892,274.134996 C320.116866,277.038851 319.183533,288.300139 317.96302,299.543722 L317.96302,299.543722 L317.815244,300.89233 C317.758472,301.405645 317.701184,301.918223 317.643477,302.429264 L317.527529,303.449059 C316.40184,313.282678 315.143053,322.342351 314.445069,324.846208 C313.72712,327.395934 311.429684,328.812448 308.845067,328.387494 C303.963014,327.679237 304.537374,323.571345 304.537374,317.480334 C304.680963,315.638865 303.532245,314.0807 301.665578,313.939048 L301.665578,313.939048 L292.475831,313.514094 C290.896343,313.514094 289.891214,314.222351 288.742496,315.922168 C288.220073,316.73591 287.671325,317.586011 287.117424,318.43567 L287.117424,318.43567 L286.747625,319.00164 L286.377693,319.565056 C284.283672,322.745932 282.250404,325.687075 281.419416,326.404374 C279.552749,327.679237 277.111722,327.679237 275.245055,326.404374 C272.516849,324.704557 272.373259,321.588225 275.245055,317.197031 L275.245055,317.197031 L287.306598,297.365831 C292.332241,289.008396 304.680963,272.860133 309.850196,269.743802 Z M134.533837,276.968025 C142.718455,267.052425 146.73897,264.786002 150.903074,266.910773 C154.923588,268.752242 155.354358,272.860133 153.056921,281.500871 C152.505536,283.659638 151.935542,285.87756 151.357608,288.113268 L151.357608,288.113268 L151.068029,289.232413 C151.026022,289.394603 150.983982,289.556851 150.941915,289.719139 L150.689202,290.693243 C150.604873,291.018026 150.520464,291.342848 150.436006,291.667586 L150.182521,292.641416 L150.182521,292.641416 L149.928941,293.61398 C146.125497,308.189171 142.355565,322.082718 141.569737,323.854648 C140.277429,326.262723 137.979992,327.254283 135.395376,326.687677 C132.66717,325.97942 131.662041,324.279602 131.662041,321.304922 C131.805631,316.488774 134.821017,308.272991 138.123582,295.807665 C138.697941,293.682894 136.113325,292.832985 134.821017,294.532802 C134.179445,295.355586 132.821225,297.309529 131.399573,299.307997 L131.399573,299.307997 L130.992226,299.879261 C129.360444,302.161652 127.72707,304.367028 127.067168,304.873357 C123.477423,308.414642 118.882549,307.564734 117.159472,302.748585 C115.867163,299.773905 115.292804,288.866745 111.990239,288.866745 C110.328228,288.866745 107.973462,294.544256 105.964767,300.903357 L105.738902,301.625899 C104.542768,305.49212 103.487082,309.538085 102.800492,312.664185 C101.795363,317.338682 99.210747,319.463454 95.9081817,318.755197 C93.4671552,318.04694 91.7440776,315.497214 92.0312572,312.805837 C92.174847,310.964368 92.6056164,309.406202 93.0363858,307.706385 C94.3902324,303.153304 96.4561673,296.570848 98.6577379,290.144499 L98.6577379,290.144499 L98.9974335,289.157356 C101.835852,280.946342 104.848619,273.176125 106.821006,270.452059 C109.549212,267.052425 113.713317,266.769122 116.728702,270.027105 C119.456908,272.576831 121.179986,277.959585 123.477423,283.625642 C124.769731,286.883625 126.349219,287.025276 128.646655,284.192248 L128.646655,284.192248 Z M195.197132,268.043985 C197.063799,267.902333 198.786877,268.752242 200.079185,270.310408 C202.089442,272.718482 204.817648,282.492431 206.109956,288.866745 L206.109956,288.866745 L207.402265,294.107848 C208.120214,296.232619 208.550983,297.224179 210.130471,297.224179 C211.997138,297.224179 212.715087,294.391151 214.868934,288.725094 L214.868934,288.725094 L215.177693,287.890614 C217.965822,280.384824 220.997141,273.062493 223.627912,270.877013 C224.63304,270.168756 225.638169,269.743802 227.074067,269.743802 C229.227914,269.743802 232.09971,271.726922 231.95612,274.984905 C231.95612,275.976465 231.525351,277.109676 230.950991,278.384539 C225.494579,288.866745 223.915091,293.682894 218.315089,309.406202 C217.166371,312.664185 215.874063,316.488774 214.150985,320.879968 C213.289446,323.00474 211.566369,324.279602 209.556112,324.279602 C207.545854,324.279602 205.535597,323.288042 203.95611,321.163271 C201.371493,317.621985 201.084314,313.08914 196.48944,294.674454 C195.771491,292.832985 193.474054,292.691334 192.612516,294.391151 C189.16636,301.332071 185.863795,311.814277 183.853538,318.755197 C182.70482,322.721437 180.407383,324.704557 177.391997,323.9963 C175.09456,323.429694 173.371483,321.304922 173.371483,318.613545 C173.371483,317.312123 174.793779,312.106433 176.623826,306.519467 L176.887925,305.719115 C176.97681,305.45172 177.06651,305.183842 177.156915,304.915859 L177.430138,304.11198 L177.430138,304.11198 L177.706937,303.309761 C178.356461,301.441629 179.029818,299.605694 179.689434,297.932437 L179.689434,297.932437 L180.007018,297.048146 C180.165227,296.605871 180.322579,296.163493 180.479142,295.721435 L180.791238,294.837867 L180.791238,294.837867 L181.101356,293.955897 C181.152884,293.809077 181.204335,293.662354 181.255711,293.515745 L181.563095,292.637574 C186.058848,279.781336 190.016412,268.043985 195.197132,268.043985 Z M166.444978,273.001785 C167.737286,270.310408 170.178313,268.893893 172.475749,269.460499 C175.921905,270.168756 176.927033,273.285088 175.634725,278.951145 C173.480878,288.725094 169.747543,297.649134 166.444978,307.139779 C162.568053,318.188591 160.988566,325.271162 155.532153,323.429694 C150.38894,322.131749 151.821586,316.410788 153.771469,310.769907 L153.955601,310.241447 C154.01736,310.065463 154.079439,309.889695 154.141654,309.71428 L154.141654,309.71428 L154.389179,309.019354 C154.499125,308.711608 154.608729,308.405532 154.716973,308.101881 L154.716973,308.101881 L154.87819,307.64832 L154.957794,307.423082 C156.465487,303.640989 157.999026,299.297956 159.438227,294.99062 L159.438227,294.99062 L159.724773,294.129805 C159.77231,293.986474 159.819732,293.843227 159.867036,293.700086 L159.867036,293.700086 L160.149409,292.842688 C163.19231,283.571815 165.698311,274.935327 166.444978,273.001785 Z M121.773973,314.328767 C123.918804,314.328767 125.657534,316.067497 125.657534,318.212329 C125.657534,320.357161 123.918804,322.09589 121.773973,322.09589 C119.629141,322.09589 117.890411,320.357161 117.890411,318.212329 C117.890411,316.067497 119.629141,314.328767 121.773973,314.328767 Z M111.417808,311.739726 C113.56264,311.739726 115.30137,313.478456 115.30137,315.623288 C115.30137,317.76812 113.56264,319.506849 111.417808,319.506849 C109.272976,319.506849 107.534247,317.76812 107.534247,315.623288 C107.534247,313.478456 109.272976,311.739726 111.417808,311.739726 Z M306.547631,291.558122 C303.675835,290.283259 297.357884,299.348951 298.793782,301.898677 C299.368141,303.173539 300.516859,303.315191 302.957886,303.315191 C304.968143,303.315191 306.547631,302.323631 306.83481,300.198859 C307.839939,293.116288 307.839939,291.983076 306.547631,291.558122 Z" id="Combined-Shape"></path>
        </g>
    </g>
</svg>